<?xml version="1.0" encoding="UTF-8"?>
<svg version="1.1" xmlns="http://www.w3.org/2000/svg" width="1024" height="1024">
<path d="M0 0 C5.03176711 0.00020649 10.06352871 -0.00533821 15.09529316 -0.01005757 C24.92680141 -0.018313 34.75830365 -0.02111012 44.58981507 -0.02166995 C52.59807672 -0.02214775 60.60633641 -0.02421559 68.61459744 -0.02737057 C91.40717138 -0.03616488 114.19974065 -0.04079212 136.9923163 -0.0400401 C138.21736724 -0.04000014 139.44241818 -0.03996019 140.70459187 -0.03991902 C141.93116989 -0.03987814 143.15774791 -0.03983726 144.42149497 -0.03979514 C164.25818759 -0.03938949 184.09486117 -0.04894163 203.93154829 -0.06305739 C224.38569539 -0.07749553 244.83983324 -0.08432344 265.29398555 -0.08346361 C276.74259386 -0.08313409 288.19118222 -0.08577199 299.63978589 -0.09664166 C309.39506743 -0.10584544 319.15032 -0.10784256 328.90560406 -0.10113224 C333.86251682 -0.09791535 338.81937432 -0.09762965 343.77628148 -0.10648549 C432.38045056 -0.2546184 525.51846155 3.66579058 594.57788289 66.14538372 C595.19405476 66.69984172 595.81022664 67.25429973 596.44507039 67.8255595 C659.42165734 124.74546959 677.73355113 197.88827694 682.57788289 280.14538372 C682.64752938 281.29782784 682.64752938 281.29782784 682.71858287 282.47355366 C683.84592947 301.82581171 683.72824092 321.19074311 683.7232666 340.56750083 C683.72306012 345.59926794 683.72860481 350.63102954 683.73332417 355.66279399 C683.7415796 365.49430224 683.74437672 375.32580448 683.74493655 385.1573159 C683.74541435 393.16557755 683.7474822 401.17383724 683.75063717 409.18209827 C683.75943148 431.97467221 683.76405872 454.76724148 683.7633067 477.55981713 C683.76326674 478.78486807 683.76322679 480.00991901 683.76318562 481.2720927 C683.7631243 483.11195973 683.7631243 483.11195973 683.76306174 484.9889958 C683.7626561 504.82568842 683.77220823 524.662362 683.78632399 544.49904912 C683.80076213 564.95319622 683.80759004 585.40733407 683.80673021 605.86148638 C683.80640069 617.31009469 683.80903859 628.75868305 683.81990826 640.20728672 C683.82911205 649.96256826 683.83110916 659.71782083 683.82439884 669.47310489 C683.82118195 674.43001765 683.82089625 679.38687515 683.82975209 684.34378231 C683.977885 772.94795139 680.05747602 866.08596238 617.57788289 935.14538372 C617.02342488 935.76155559 616.46896687 936.37772747 615.8977071 937.01257122 C558.97779701 999.98915817 485.83498966 1018.30105196 403.57788289 1023.14538372 C402.42543876 1023.21503021 402.42543876 1023.21503021 401.24971294 1023.2860837 C381.8974549 1024.4134303 362.53252349 1024.29574175 343.15576577 1024.29076743 C338.12399867 1024.29056095 333.09223706 1024.29610564 328.06047261 1024.300825 C318.22896436 1024.30908043 308.39746212 1024.31187755 298.5659507 1024.31243738 C290.55768905 1024.31291518 282.54942936 1024.31498303 274.54116833 1024.318138 C251.74859439 1024.32693231 228.95602513 1024.33155955 206.16344947 1024.33080753 C204.93839853 1024.33076757 203.7133476 1024.33072762 202.4511739 1024.33068645 C201.22459588 1024.33064557 199.99801786 1024.33060469 198.7342708 1024.33056257 C178.89757818 1024.33015693 159.06090461 1024.33970906 139.22421748 1024.35382482 C118.77007039 1024.36826296 98.31593254 1024.37509087 77.86178023 1024.37423104 C66.41317191 1024.37390152 54.96458355 1024.37653942 43.51597989 1024.38740909 C33.76069834 1024.39661287 24.00544577 1024.39860999 14.25016171 1024.39189967 C9.29324895 1024.38868278 4.33639145 1024.38839708 -0.6205157 1024.39725292 C-89.22468479 1024.54538583 -182.36269578 1020.62497685 -251.42211711 958.14538372 C-252.34637493 957.3136967 -252.34637493 957.3136967 -253.28930461 956.46520793 C-316.26589157 899.54529784 -334.57778536 826.40249049 -339.42211711 744.14538372 C-339.46854811 743.37708763 -339.5149791 742.60879155 -339.5628171 741.81721377 C-340.6901637 722.46495573 -340.57247515 703.10002432 -340.56750083 683.7232666 C-340.56729434 678.6914995 -340.57283904 673.65973789 -340.5775584 668.62797344 C-340.58581383 658.79646519 -340.58861095 648.96496295 -340.58917078 639.13345153 C-340.58964858 631.12518988 -340.59171642 623.11693019 -340.5948714 615.10866916 C-340.60366571 592.31609522 -340.60829295 569.52352596 -340.60754093 546.7309503 C-340.60750097 545.50589936 -340.60746102 544.28084843 -340.60741985 543.01867473 C-340.60737897 541.79209671 -340.60733809 540.56551869 -340.60729597 539.30177163 C-340.60689032 519.46507901 -340.61644246 499.62840544 -340.63055822 479.79171831 C-340.64499636 459.33757122 -340.65182427 438.88343337 -340.65096444 418.42928106 C-340.65063492 406.98067274 -340.65327282 395.53208438 -340.66414249 384.08348072 C-340.67334627 374.32819917 -340.67534339 364.5729466 -340.66863307 354.81766254 C-340.66541618 349.86074978 -340.66513048 344.90389228 -340.67398632 339.94698513 C-340.82211923 251.34281604 -336.90171025 158.20480505 -274.42211711 89.14538372 C-273.86765911 88.52921184 -273.3132011 87.91303997 -272.74194133 87.27819622 C-215.82203124 24.30160926 -142.67922389 5.98971547 -60.42211711 1.14538372 C-59.26967299 1.07573722 -59.26967299 1.07573722 -58.09394717 1.00468373 C-38.74168912 -0.12266287 -19.37675772 -0.00497432 0 0 Z " fill="#FEFCF7" transform="translate(340.4221171140671,-0.14538371562957764)"/>
<path d="M0 0 C1.49215249 1.21336955 2.97098709 2.44326344 4.4375 3.6875 C5.23929688 4.36683594 6.04109375 5.04617187 6.8671875 5.74609375 C17.36360466 14.9181966 25.50920899 24.58629216 32.4375 36.6875 C33.14519531 37.80705078 33.14519531 37.80705078 33.8671875 38.94921875 C37.5266849 44.9157906 39.37130887 51.3454234 41.32421875 58.015625 C42.31512004 61.51020228 42.31512004 61.51020228 43.43783849 64.07172132 C46.73438279 72.69767146 46.73148603 82.18554213 46.71165466 91.29815674 C46.71689134 92.50993583 46.72212802 93.72171493 46.72752339 94.97021461 C46.73983884 98.2985481 46.74336942 101.6266693 46.74292648 104.95501065 C46.74458732 108.55843064 46.75767692 112.16181328 46.76911926 115.76521301 C46.79186803 123.62689579 46.79987843 131.48855141 46.80494571 139.35026264 C46.80821358 144.26720133 46.81474244 149.18413229 46.8219471 154.10106659 C46.84149729 167.73939382 46.85791159 181.37771391 46.86082363 195.01605606 C46.8610112 195.88699016 46.86119877 196.75792426 46.86139202 197.6552503 C46.86175825 199.42048661 46.86212195 201.18572292 46.86248314 202.95095924 C46.86266595 203.82710851 46.86284876 204.70325778 46.86303711 205.60595703 C46.86330793 206.92180143 46.86330793 206.92180143 46.86358423 208.26422855 C46.86712532 222.47584959 46.89415077 236.68731906 46.931535 250.89888754 C46.96969059 265.52171325 46.98898162 280.14446386 46.98928314 294.76734042 C46.98986596 302.96477396 46.99824487 311.16202647 47.02728081 319.35941315 C47.05189163 326.33903533 47.05901236 333.31841039 47.04403328 340.29806432 C47.03690458 343.85262851 47.03754471 347.40670568 47.06044388 350.96121407 C47.1926258 372.79415391 45.86858657 390.77634552 30.1875 407.4375 C20.19124246 416.90853045 7.36005211 423.81072244 -6.65433788 423.81334114 C-8.16702245 423.81725276 -8.16702245 423.81725276 -9.71026629 423.82124341 C-11.36142686 423.81789732 -11.36142686 423.81789732 -13.04594421 423.81448364 C-14.22078473 423.81604363 -15.39562525 423.81760362 -16.606067 423.81921089 C-19.86317342 423.82250944 -23.12024258 423.82132214 -26.37734807 423.81822467 C-29.89130739 423.81596312 -33.40526165 423.81945391 -36.91921997 423.82220459 C-43.80069266 423.82665274 -50.68215445 423.82569017 -57.56362756 423.82279195 C-63.15416766 423.82053473 -68.74470471 423.82022678 -74.33524513 423.82131577 C-75.5281558 423.82154561 -75.5281558 423.82154561 -76.74516568 423.82178011 C-78.36064555 423.82209983 -79.97612542 423.82242404 -81.59160528 423.8227527 C-96.74115038 423.82560455 -111.89068943 423.82232479 -127.04023353 423.81695233 C-140.04904218 423.81248198 -153.0578419 423.8132627 -166.06665039 423.81787109 C-181.16617394 423.8232176 -196.26569219 423.82533261 -211.36521655 423.82225883 C-212.97387842 423.82194027 -214.58254029 423.8216259 -216.19120216 423.82131577 C-216.98274545 423.82116149 -217.77428873 423.82100721 -218.58981818 423.82084826 C-224.17742552 423.81998353 -229.76502951 423.82144499 -235.35263634 423.82379532 C-242.15635962 423.82659424 -248.96007136 423.82585298 -255.76379331 423.82051457 C-259.23741436 423.81787922 -262.71101614 423.81686975 -266.18463707 423.82016373 C-269.94311317 423.82287512 -273.70153417 423.81949422 -277.46000671 423.81448364 C-279.12120553 423.81782973 -279.12120553 423.81782973 -280.81596392 423.82124341 C-281.81659706 423.81863566 -282.81723019 423.81602791 -283.84818554 423.81334114 C-284.71655361 423.81317879 -285.58492169 423.81301644 -286.47960395 423.81284916 C-288.5625 423.6875 -288.5625 423.6875 -290.5625 422.6875 C-291.89014781 422.53422713 -293.22189874 422.41547897 -294.5546875 422.31640625 C-299.85362592 421.76703569 -304.65703514 420.33436766 -309.6875 418.625 C-310.60402344 418.31409424 -311.52054687 418.00318848 -312.46484375 417.68286133 C-339.43402617 408.22243047 -363.03833609 388.12139039 -375.84375 362.41381836 C-383.77656862 345.76879672 -387.92830831 329.76967828 -387.8125 311.25 C-387.82023438 310.01701172 -387.82796875 308.78402344 -387.8359375 307.51367188 C-387.81290468 296.61339157 -386.51022522 286.33686694 -383 276 C-382.7431543 275.24307861 -382.48630859 274.48615723 -382.22167969 273.70629883 C-372.02000846 244.93579621 -351.36881716 222.94227905 -324.5625 208.875 C-292.03487347 193.46335978 -250.51876218 193.86340051 -216.16088867 203.00512695 C-213.88553688 203.60266602 -211.61993309 204.10893968 -209.3125 204.5625 C-178.63070441 211.3684797 -150.39459001 226.88299244 -123.5625 242.6875 C-124.50705115 239.85384656 -125.55089453 238.01381708 -127.1875 235.546875 C-127.7247168 234.73130127 -128.26193359 233.91572754 -128.81542969 233.07543945 C-129.68022949 231.76965942 -129.68022949 231.76965942 -130.5625 230.4375 C-136.10997989 221.97145121 -141.53625229 213.47417705 -146.5625 204.6875 C-147.11067383 203.73689697 -147.11067383 203.73689697 -147.66992188 202.76708984 C-154.62324113 190.58673034 -159.7045548 177.82280656 -164.5625 164.6875 C-164.91296387 163.75373535 -165.26342773 162.8199707 -165.62451172 161.85791016 C-167.7122573 156.23359976 -169.56183892 150.6209336 -171.0625 144.8125 C-171.27044189 144.01295898 -171.47838379 143.21341797 -171.69262695 142.38964844 C-181.44263957 103.92568113 -183.36009482 68.16225427 -163.5625 32.6875 C-160.91179124 28.40445306 -157.82867566 24.51700561 -154.5625 20.6875 C-153.84320313 19.83027344 -153.12390625 18.97304687 -152.3828125 18.08984375 C-114.40895964 -25.62738543 -47.18902623 -35.65756575 0 0 Z " fill="#D436F8" transform="translate(578.5625,201.3125)"/>
<path d="M0 0 C1.49215249 1.21336955 2.97098709 2.44326344 4.4375 3.6875 C5.23929688 4.36683594 6.04109375 5.04617187 6.8671875 5.74609375 C17.36360466 14.9181966 25.50920899 24.58629216 32.4375 36.6875 C33.14519531 37.80705078 33.14519531 37.80705078 33.8671875 38.94921875 C37.5266849 44.9157906 39.37130887 51.3454234 41.32421875 58.015625 C42.31512004 61.51020228 42.31512004 61.51020228 43.43783849 64.07172132 C46.73438279 72.69767146 46.73148603 82.18554213 46.71165466 91.29815674 C46.71689134 92.50993583 46.72212802 93.72171493 46.72752339 94.97021461 C46.73983884 98.2985481 46.74336942 101.6266693 46.74292648 104.95501065 C46.74458732 108.55843064 46.75767692 112.16181328 46.76911926 115.76521301 C46.79186803 123.62689579 46.79987843 131.48855141 46.80494571 139.35026264 C46.80821358 144.26720133 46.81474244 149.18413229 46.8219471 154.10106659 C46.84149729 167.73939382 46.85791159 181.37771391 46.86082363 195.01605606 C46.8610112 195.88699016 46.86119877 196.75792426 46.86139202 197.6552503 C46.86175825 199.42048661 46.86212195 201.18572292 46.86248314 202.95095924 C46.86266595 203.82710851 46.86284876 204.70325778 46.86303711 205.60595703 C46.86330793 206.92180143 46.86330793 206.92180143 46.86358423 208.26422855 C46.86712532 222.47584959 46.89415077 236.68731906 46.931535 250.89888754 C46.96969059 265.52171325 46.98898162 280.14446386 46.98928314 294.76734042 C46.98986596 302.96477396 46.99824487 311.16202647 47.02728081 319.35941315 C47.05189163 326.33903533 47.05901236 333.31841039 47.04403328 340.29806432 C47.03690458 343.85262851 47.03754471 347.40670568 47.06044388 350.96121407 C47.1926258 372.79415391 45.86858657 390.77634552 30.1875 407.4375 C20.19124246 416.90853045 7.36005211 423.81072244 -6.65433788 423.81334114 C-8.16702245 423.81725276 -8.16702245 423.81725276 -9.71026629 423.82124341 C-11.36142686 423.81789732 -11.36142686 423.81789732 -13.04594421 423.81448364 C-14.22078473 423.81604363 -15.39562525 423.81760362 -16.606067 423.81921089 C-19.86317342 423.82250944 -23.12024258 423.82132214 -26.37734807 423.81822467 C-29.89130739 423.81596312 -33.40526165 423.81945391 -36.91921997 423.82220459 C-43.80069266 423.82665274 -50.68215445 423.82569017 -57.56362756 423.82279195 C-63.15416766 423.82053473 -68.74470471 423.82022678 -74.33524513 423.82131577 C-75.5281558 423.82154561 -75.5281558 423.82154561 -76.74516568 423.82178011 C-78.36064555 423.82209983 -79.97612542 423.82242404 -81.59160528 423.8227527 C-96.74115038 423.82560455 -111.89068943 423.82232479 -127.04023353 423.81695233 C-140.04904218 423.81248198 -153.0578419 423.8132627 -166.06665039 423.81787109 C-181.16617394 423.8232176 -196.26569219 423.82533261 -211.36521655 423.82225883 C-212.97387842 423.82194027 -214.58254029 423.8216259 -216.19120216 423.82131577 C-216.98274545 423.82116149 -217.77428873 423.82100721 -218.58981818 423.82084826 C-224.17742552 423.81998353 -229.76502951 423.82144499 -235.35263634 423.82379532 C-242.15635962 423.82659424 -248.96007136 423.82585298 -255.76379331 423.82051457 C-259.23741436 423.81787922 -262.71101614 423.81686975 -266.18463707 423.82016373 C-269.94311317 423.82287512 -273.70153417 423.81949422 -277.46000671 423.81448364 C-279.12120553 423.81782973 -279.12120553 423.81782973 -280.81596392 423.82124341 C-281.81659706 423.81863566 -282.81723019 423.81602791 -283.84818554 423.81334114 C-284.71655361 423.81317879 -285.58492169 423.81301644 -286.47960395 423.81284916 C-288.5625 423.6875 -288.5625 423.6875 -290.5625 422.6875 C-291.89014781 422.53422713 -293.22189874 422.41547897 -294.5546875 422.31640625 C-299.85362592 421.76703569 -304.65703514 420.33436766 -309.6875 418.625 C-310.60402344 418.31409424 -311.52054687 418.00318848 -312.46484375 417.68286133 C-339.43402617 408.22243047 -363.03833609 388.12139039 -375.84375 362.41381836 C-383.77656862 345.76879672 -387.92830831 329.76967828 -387.8125 311.25 C-387.82023438 310.01701172 -387.82796875 308.78402344 -387.8359375 307.51367188 C-387.81290468 296.61339157 -386.51022522 286.33686694 -383 276 C-382.7431543 275.24307861 -382.48630859 274.48615723 -382.22167969 273.70629883 C-372.02000846 244.93579621 -351.36881716 222.94227905 -324.5625 208.875 C-292.03487347 193.46335978 -250.51876218 193.86340051 -216.16088867 203.00512695 C-213.88553688 203.60266602 -211.61993309 204.10893968 -209.3125 204.5625 C-178.63070441 211.3684797 -150.39459001 226.88299244 -123.5625 242.6875 C-124.50705115 239.85384656 -125.55089453 238.01381708 -127.1875 235.546875 C-127.7247168 234.73130127 -128.26193359 233.91572754 -128.81542969 233.07543945 C-129.68022949 231.76965942 -129.68022949 231.76965942 -130.5625 230.4375 C-136.10997989 221.97145121 -141.53625229 213.47417705 -146.5625 204.6875 C-147.11067383 203.73689697 -147.11067383 203.73689697 -147.66992188 202.76708984 C-154.62324113 190.58673034 -159.7045548 177.82280656 -164.5625 164.6875 C-164.91296387 163.75373535 -165.26342773 162.8199707 -165.62451172 161.85791016 C-167.7122573 156.23359976 -169.56183892 150.6209336 -171.0625 144.8125 C-171.27044189 144.01295898 -171.47838379 143.21341797 -171.69262695 142.38964844 C-181.44263957 103.92568113 -183.36009482 68.16225427 -163.5625 32.6875 C-160.91179124 28.40445306 -157.82867566 24.51700561 -154.5625 20.6875 C-153.84320313 19.83027344 -153.12390625 18.97304687 -152.3828125 18.08984375 C-114.40895964 -25.62738543 -47.18902623 -35.65756575 0 0 Z M-101.5625 -2.3125 C-102.3460083 -1.95945801 -103.1295166 -1.60641602 -103.93676758 -1.24267578 C-106.33898085 -0.15383016 -108.73246041 0.95257896 -111.125 2.0625 C-111.92357422 2.4234375 -112.72214844 2.784375 -113.54492188 3.15625 C-122.33181501 7.25250336 -129.18606116 12.91992925 -136 19.75 C-136.64670654 20.39686768 -137.29341309 21.04373535 -137.9597168 21.71020508 C-144.6505726 28.55986945 -150.37596521 36.03155646 -154.5625 44.6875 C-155.078125 45.5125 -155.59375 46.3375 -156.125 47.1875 C-157.45910289 49.50767893 -157.956725 51.12715408 -158.5625 53.6875 C-159.02885621 55.12920692 -159.50863005 56.56662548 -160 58 C-163.4262752 68.19566357 -165.7791086 77.86862095 -166.125 88.625 C-166.18480914 90.30092851 -166.2484218 91.97672696 -166.31640625 93.65234375 C-166.35229858 94.74470337 -166.35229858 94.74470337 -166.38891602 95.85913086 C-166.5625 97.6875 -166.5625 97.6875 -167.5625 99.6875 C-167.24001743 101.02349921 -166.90477417 102.35643378 -166.5625 103.6875 C-166.5625 105.35416667 -166.5625 107.02083333 -166.5625 108.6875 C-166.35625 109.3475 -166.15 110.0075 -165.9375 110.6875 C-165.41893471 113.45318155 -166.51221749 115.12743639 -167.5625 117.6875 C-167.2325 118.6775 -166.9025 119.6675 -166.5625 120.6875 C-166.76875 121.6775 -166.975 122.6675 -167.1875 123.6875 C-167.31125 124.6775 -167.435 125.6675 -167.5625 126.6875 C-166.58496356 127.70946992 -165.5819119 128.70729625 -164.5625 129.6875 C-164.16789977 132.01125692 -163.84019908 134.3468935 -163.5625 136.6875 C-163.211875 137.71875 -162.86125 138.75 -162.5 139.8125 C-161.56455484 142.68119849 -161.5625 144.70938787 -161.5625 147.6875 C-160.90992127 149.359733 -160.24382451 151.02677151 -159.5625 152.6875 C-159.5625 154.0075 -159.5625 155.3275 -159.5625 156.6875 C-158.9025 157.3475 -158.2425 158.0075 -157.5625 158.6875 C-156.57989113 162.12663105 -155.73164524 165.47291487 -155.23828125 169.015625 C-154.12080427 176.46547156 -150.99483091 182.60349861 -146.5625 188.6875 C-145.9025 188.6875 -145.2425 188.6875 -144.5625 188.6875 C-144.28986328 189.75677734 -144.28986328 189.75677734 -144.01171875 190.84765625 C-141.84224735 201.0559307 -141.84224735 201.0559307 -135.5625 208.6875 C-134.30835803 210.98771039 -133.16085728 213.25321976 -132.0625 215.625 C-130.27864918 219.45365798 -128.69906277 222.77888511 -125.5625 225.6875 C-125.2325 226.6775 -124.9025 227.6675 -124.5625 228.6875 C-123.5831121 229.70769573 -122.58354551 230.70899805 -121.5625 231.6875 C-121.2325 232.3475 -120.9025 233.0075 -120.5625 233.6875 C-119.9025 233.6875 -119.2425 233.6875 -118.5625 233.6875 C-117.9025 235.3375 -117.2425 236.9875 -116.5625 238.6875 C-115.5725 238.6875 -114.5825 238.6875 -113.5625 238.6875 C-113.5625 239.6775 -113.5625 240.6675 -113.5625 241.6875 C-112.9025 241.6875 -112.2425 241.6875 -111.5625 241.6875 C-111.2325 243.0075 -110.9025 244.3275 -110.5625 245.6875 C-109.2425 246.0175 -107.9225 246.3475 -106.5625 246.6875 C-106.5625 247.3475 -106.5625 248.0075 -106.5625 248.6875 C-105.9025 248.6875 -105.2425 248.6875 -104.5625 248.6875 C-105.83764702 254.17063219 -107.96245024 256.50285017 -112.5625 259.6875 C-117.29535899 261.95104126 -121.54015661 262.00266549 -126.5625 260.6875 C-133.3309163 258.10609876 -139.58627648 254.52175106 -145.9375 251.0625 C-148.26158053 249.80573395 -150.58579954 248.54922395 -152.91015625 247.29296875 C-156.05839732 245.58776487 -159.20600066 243.88144912 -162.35107422 242.17041016 C-164.68935172 240.89955792 -167.03158737 239.63634939 -169.375 238.375 C-170.04257324 238.00874512 -170.71014648 237.64249023 -171.39794922 237.26513672 C-174.79950764 235.44144704 -177.78750204 234.39225932 -181.5625 233.6875 C-181.8925 233.0275 -182.2225 232.3675 -182.5625 231.6875 C-184.43982843 230.88353175 -184.43982843 230.88353175 -186.6875 230.25 C-189.53639801 229.38744438 -192.16419872 228.42156751 -194.89453125 227.21484375 C-201.21686988 224.58221925 -207.90949575 223.23706851 -214.5625 221.6875 C-215.74714844 221.40648437 -216.93179688 221.12546875 -218.15234375 220.8359375 C-253.56014675 212.80530177 -294.76941498 210.65169157 -326.5625 230.6875 C-329.71878829 232.86059944 -332.6530623 235.19593486 -335.5625 237.6875 C-336.37332031 238.35394531 -337.18414062 239.02039063 -338.01953125 239.70703125 C-346.77290382 247.1695839 -354.03344162 256.05405858 -358.5625 266.6875 C-358.5625 267.3475 -358.5625 268.0075 -358.5625 268.6875 C-359.2225 268.6875 -359.8825 268.6875 -360.5625 268.6875 C-361.52873415 271.16385482 -362.48755397 273.64238641 -363.4375 276.125 C-363.85902344 277.22618164 -363.85902344 277.22618164 -364.2890625 278.34960938 C-365.70104061 282.11599439 -366.90224957 285.70492557 -367.5625 289.6875 C-368.17615153 293.11748906 -369.35703194 294.86744133 -371.625 297.5 C-375.11365231 301.71686615 -375.30966387 305.50112057 -375.45703125 310.85546875 C-375.71196373 317.70087793 -375.71196373 317.70087793 -378.125 320.5 C-380.27063396 323.76509515 -379.97226989 326.94305103 -379.5625 330.6875 C-378.79219878 334.17559191 -378.79219878 334.17559191 -377.5625 337.6875 C-377.34464844 338.36425781 -377.12679687 339.04101562 -376.90234375 339.73828125 C-376.14657867 342.06339458 -375.3544752 344.37448831 -374.5625 346.6875 C-374.14871094 347.97333984 -374.14871094 347.97333984 -373.7265625 349.28515625 C-371.23435781 356.6872172 -367.61394255 363.03630275 -363.5625 369.6875 C-362.82820379 371.03889205 -362.09802408 372.39254372 -361.375 373.75 C-359.6265333 376.58372189 -358.24698958 377.83612788 -355.5625 379.6875 C-355.2325 380.6775 -354.9025 381.6675 -354.5625 382.6875 C-352.96336018 384.27447631 -352.96336018 384.27447631 -351.0625 385.75 C-347.66198542 388.48852916 -347.66198542 388.48852916 -346.5625 390.6875 C-344.84515702 391.64524897 -343.1265749 392.60093077 -341.3984375 393.5390625 C-339.5625 394.6875 -339.5625 394.6875 -336.9375 397.375 C-334.37926541 399.86591263 -333.05808616 400.38787833 -329.5625 400.6875 C-329.0675 402.1725 -329.0675 402.1725 -328.5625 403.6875 C-323.32480793 407.06892189 -317.5764791 409.15666896 -311.5625 410.6875 C-310.12246258 411.18014438 -308.68511454 411.68069382 -307.25 412.1875 C-295.69989978 416.0702162 -283.87497688 416.83870877 -271.77680969 416.82121277 C-270.61770795 416.82347833 -269.4586062 416.82574388 -268.26438016 416.82807809 C-265.0696417 416.83328907 -261.87493892 416.83406716 -258.6801976 416.83288372 C-255.22621696 416.83267873 -251.77224457 416.83820755 -248.31826782 416.84294128 C-241.56166804 416.85122541 -234.80507699 416.85399505 -228.04847256 416.85455366 C-222.55722312 416.8550296 -217.06597655 416.85708823 -211.57472801 416.86025429 C-195.99777334 416.86905243 -180.42082553 416.87367463 -164.84386835 416.87292381 C-164.00521357 416.87288386 -163.16655879 416.8728439 -162.30249023 416.87280273 C-161.46280963 416.87276185 -160.62312903 416.87272097 -159.75800356 416.87267885 C-146.13441276 416.87227195 -132.51084955 416.88185472 -118.88726673 416.8959411 C-104.89061727 416.91029891 -90.89398128 416.91721171 -76.89732426 416.91634732 C-69.04228403 416.91601529 -61.18727275 416.91876544 -53.33223915 416.92952538 C-46.64875942 416.93862223 -39.96532181 416.94081211 -33.28183857 416.93401595 C-29.8724796 416.93074747 -26.46320149 416.93070601 -23.05385017 416.9393692 C-19.35824043 416.94705435 -15.66284433 416.94246733 -11.96723938 416.93473816 C-10.35095602 416.9424535 -10.35095602 416.9424535 -8.70202047 416.95032471 C-3.58241375 416.92659553 0.65193326 416.73379037 5.4375 414.6875 C6.6440625 414.2234375 6.6440625 414.2234375 7.875 413.75 C8.720625 413.399375 9.56625 413.04875 10.4375 412.6875 C11.34435547 412.32978516 11.34435547 412.32978516 12.26953125 411.96484375 C16.04334997 410.65301864 16.04334997 410.65301864 18.4375 407.6875 C19.4275 407.3575 20.4175 407.0275 21.4375 406.6875 C23.02447631 405.08836018 23.02447631 405.08836018 24.5 403.1875 C27.23852916 399.78698542 27.23852916 399.78698542 29.4375 398.6875 C29.7675 397.6975 30.0975 396.7075 30.4375 395.6875 C31.42935929 394.67942503 32.42999093 393.67993412 33.4375 392.6875 C41.61011475 379.57059875 40.58600493 363.91817909 40.56689453 349.05175781 C40.56825231 347.27178919 40.57003436 345.49182085 40.57220459 343.71185303 C40.57676186 338.87157026 40.57498899 334.03130887 40.5718255 329.19102573 C40.56926034 324.0193381 40.57165382 318.84765208 40.57321167 313.67596436 C40.57503501 304.90278812 40.57263693 296.12962027 40.56787109 287.35644531 C40.56314542 278.56086669 40.56294615 269.76530508 40.56787109 260.96972656 C40.59336661 214.14717045 40.49685003 167.32821707 40.0235877 120.50773525 C39.99231606 117.37226559 39.96267305 114.23678394 39.93335342 111.10129547 C39.88730766 106.2374817 39.83583949 101.37375637 39.7796998 96.51004887 C39.75974213 94.72860682 39.74134959 92.94714648 39.72460318 91.16567135 C39.70135344 88.74535539 39.67198514 86.32519361 39.64083862 83.90496826 C39.63527958 83.19514022 39.62972054 82.48531218 39.62399304 81.7539742 C39.61218017 78.0972822 39.61218017 78.0972822 38.4375 74.6875 C38.26001866 73.25356347 38.11858853 71.8150036 38 70.375 C37.6395438 66.79904564 36.9042529 63.98769403 35.4375 60.6875 C35.06878912 59.02830104 34.72468326 57.3627357 34.4375 55.6875 C33.7775 55.6875 33.1175 55.6875 32.4375 55.6875 C32.51613281 55.01847656 32.59476563 54.34945312 32.67578125 53.66015625 C32.35132008 49.61237024 30.57498972 46.59809902 28.625 43.125 C28.26857422 42.46564453 27.91214844 41.80628906 27.54492188 41.12695312 C25.70876039 37.77469501 23.74283065 34.74050546 21.4375 31.6875 C21.1075 30.6975 20.7775 29.7075 20.4375 28.6875 C19.30670977 27.49353714 18.16682321 26.30671806 16.97998047 25.16845703 C15.24213677 23.49992904 13.56132044 21.78296785 11.87890625 20.05859375 C10.58603021 18.74730442 9.29305962 17.43610831 8 16.125 C7.35740234 15.46564453 6.71480469 14.80628906 6.05273438 14.12695312 C2.39034669 10.42738383 -1.18797325 7.49168381 -5.5625 4.6875 C-5.8925 4.0275 -6.2225 3.3675 -6.5625 2.6875 C-7.89326989 2.34407551 -9.22681979 2.01130126 -10.5625 1.6875 C-11.2225 1.0275 -11.8825 0.3675 -12.5625 -0.3125 C-14.45805915 -0.90557165 -16.38010787 -1.41593669 -18.3125 -1.875 C-19.33859375 -2.12378906 -20.3646875 -2.37257812 -21.421875 -2.62890625 C-26.55204228 -3.74554714 -31.30395674 -4.43770341 -36.5625 -4.3125 C-36.5625 -5.3025 -36.5625 -6.2925 -36.5625 -7.3125 C-47.32262762 -8.68054371 -47.32262762 -8.68054371 -58.0625 -7.8125 C-64.01036726 -6.62292655 -69.54725699 -7.26236139 -75.4375 -8.5 C-85.13229445 -10.23693268 -92.92157953 -6.23772962 -101.5625 -2.3125 Z " fill="#DB4AFB" transform="translate(578.5625,201.3125)"/>
<path d="M0 0 C2.74988116 1.56591368 4.86511324 2.31438914 8.04248047 2.16308594 C10.64563041 0.81007313 10.64563041 0.81007313 12.04248047 -1.83691406 C11.89635152 -5.53123918 11.89635152 -5.53123918 11.04248047 -8.83691406 C12.03248047 -8.83691406 13.02248047 -8.83691406 14.04248047 -8.83691406 C14.04248047 -7.84691406 14.04248047 -6.85691406 14.04248047 -5.83691406 C14.70248047 -5.83691406 15.36248047 -5.83691406 16.04248047 -5.83691406 C16.70248047 -4.18691406 17.36248047 -2.53691406 18.04248047 -0.83691406 C19.03248047 -0.83691406 20.02248047 -0.83691406 21.04248047 -0.83691406 C21.04248047 -0.17691406 21.04248047 0.48308594 21.04248047 1.16308594 C22.52748047 0.66808594 22.52748047 0.66808594 24.04248047 0.16308594 C23.76805968 4.69102893 21.80536418 7.33933716 18.84326172 10.57714844 C15.35797749 13.64661785 11.64396809 15.09344765 6.99951172 15.21777344 C-2.22322452 14.39718182 -10.37954195 8.87058378 -18.33251953 4.53808594 C-20.65780182 3.27853088 -22.98332309 2.0194169 -25.30908203 0.76074219 C-26.44120117 0.14730957 -27.57332031 -0.46612305 -28.73974609 -1.09814453 C-33.05127685 -3.42794135 -37.37550923 -5.7329646 -41.70751953 -8.02441406 C-42.36671387 -8.37391113 -43.0259082 -8.7234082 -43.70507812 -9.08349609 C-51.33418796 -13.20852589 -51.33418796 -13.20852589 -59.39501953 -16.33691406 C-62.12778657 -17.18241105 -64.64665787 -18.1424754 -67.27001953 -19.30566406 C-73.60158355 -21.93487285 -80.29745881 -23.28570202 -86.95751953 -24.83691406 C-88.14216797 -25.11792969 -89.32681641 -25.39894531 -90.54736328 -25.68847656 C-125.95516628 -33.71911229 -167.16443451 -35.87272249 -198.95751953 -15.83691406 C-202.11391279 -13.66374235 -205.0451515 -11.32499827 -207.95751953 -8.83691406 C-209.15634766 -7.87205078 -209.15634766 -7.87205078 -210.37939453 -6.88769531 C-215.45155945 -2.62676174 -219.54555174 1.93233553 -223.39501953 7.28808594 C-224.01461548 8.14865601 -224.01461548 8.14865601 -224.64672852 9.02661133 C-227.33129733 12.90345921 -229.22271389 16.77865754 -230.95751953 21.16308594 C-231.61751953 21.16308594 -232.27751953 21.16308594 -232.95751953 21.16308594 C-234.46785184 25.98608044 -235.92168699 30.76246684 -236.89501953 35.72558594 C-238.13105662 41.49716408 -240.04533653 47.14163534 -244.14501953 51.47558594 C-246.69449406 55.25584127 -246.58156947 58.74180449 -246.78173828 63.22558594 C-247.19801674 70.1820615 -247.19801674 70.1820615 -249.45751953 73.10058594 C-251.36513107 75.72355181 -251.59579097 77.97987456 -251.95751953 81.16308594 C-252.28751953 81.16308594 -252.61751953 81.16308594 -252.95751953 81.16308594 C-256.51828211 65.35559389 -254.64446399 47.53718805 -249.95751953 32.16308594 C-249.59529297 30.93589844 -249.23306641 29.70871094 -248.85986328 28.44433594 C-240.52694209 2.90887576 -221.59685234 -18.67845314 -197.95605469 -31.20385742 C-186.5743352 -36.94477115 -174.64659367 -41.19097081 -161.95751953 -42.83691406 C-161.11318359 -42.94777344 -160.26884766 -43.05863281 -159.39892578 -43.17285156 C-102.61484068 -49.41656969 -47.54706705 -29.58084701 0 0 Z " fill="#F456FF" transform="translate(450.95751953125,448.8369140625)"/>
<path d="M0 0 C0.86375244 0.28367432 1.72750488 0.56734863 2.61743164 0.85961914 C8.47249564 2.88912654 13.74504368 5.51310317 19.0625 8.6875 C15.23655254 9.96281582 13.15991965 9.22023427 9.25 8.3125 C4.86424267 7.30654923 0.50904113 6.38205926 -3.9375 5.6875 C-3.9375 4.6975 -3.9375 3.7075 -3.9375 2.6875 C-7.00005961 2.6604509 -10.0623786 2.64063702 -13.125 2.625 C-13.98931641 2.61662109 -14.85363281 2.60824219 -15.74414062 2.59960938 C-19.96612334 2.5834332 -23.80918444 2.70815507 -27.9375 3.6875 C-33.08742598 4.11254188 -37.76700326 3.56014328 -42.8125 2.5 C-52.50729445 0.76306732 -60.29657953 4.76227038 -68.9375 8.6875 C-69.7210083 9.04054199 -70.5045166 9.39358398 -71.31176758 9.75732422 C-73.71398085 10.84616984 -76.10746041 11.95257896 -78.5 13.0625 C-79.69786133 13.60390625 -79.69786133 13.60390625 -80.91992188 14.15625 C-89.46768346 18.14102557 -96.24381579 23.60179335 -102.875 30.25 C-103.47473633 30.84989746 -104.07447266 31.44979492 -104.69238281 32.06787109 C-111.23391486 38.77618938 -116.85108937 46.21883 -120.9375 54.6875 C-121.453125 55.5125 -121.96875 56.3375 -122.5 57.1875 C-123.83410289 59.50767893 -124.331725 61.12715408 -124.9375 63.6875 C-125.40385621 65.12920692 -125.88363005 66.56662548 -126.375 68 C-129.8012752 78.19566357 -132.1541086 87.86862095 -132.5 98.625 C-132.55980914 100.30092851 -132.6234218 101.97672696 -132.69140625 103.65234375 C-132.71533447 104.3805835 -132.7392627 105.10882324 -132.76391602 105.85913086 C-132.9375 107.6875 -132.9375 107.6875 -133.9375 109.6875 C-133.61501743 111.02349921 -133.27977417 112.35643378 -132.9375 113.6875 C-132.9375 115.35416667 -132.9375 117.02083333 -132.9375 118.6875 C-132.73125 119.3475 -132.525 120.0075 -132.3125 120.6875 C-131.79393471 123.45318155 -132.88721749 125.12743639 -133.9375 127.6875 C-133.6075 128.6775 -133.2775 129.6675 -132.9375 130.6875 C-133.14375 131.6775 -133.35 132.6675 -133.5625 133.6875 C-133.68625 134.6775 -133.81 135.6675 -133.9375 136.6875 C-132.95996356 137.70946992 -131.9569119 138.70729625 -130.9375 139.6875 C-130.54289977 142.01125692 -130.21519908 144.3468935 -129.9375 146.6875 C-129.586875 147.71875 -129.23625 148.75 -128.875 149.8125 C-127.93955484 152.68119849 -127.9375 154.70938787 -127.9375 157.6875 C-127.586875 158.533125 -127.23625 159.37875 -126.875 160.25 C-125.83617208 162.9509526 -125.95167461 164.02577144 -126.9375 166.6875 C-125.9475 167.0175 -124.9575 167.3475 -123.9375 167.6875 C-123.793125 168.80125 -123.64875 169.915 -123.5 171.0625 C-123.15377965 174.50892047 -123.15377965 174.50892047 -121.9375 176.6875 C-122.5975 177.6775 -123.2575 178.6675 -123.9375 179.6875 C-131.3105027 158.64022917 -137.01035432 137.81601659 -139.9375 115.6875 C-140.03828857 114.96369141 -140.13907715 114.23988281 -140.24291992 113.49414062 C-143.56255389 87.48416739 -136.38771635 59.86888068 -120.9375 38.6875 C-117.21175091 34.08992563 -113.09770154 29.88877546 -108.9375 25.6875 C-108.32261719 25.01203125 -107.70773437 24.3365625 -107.07421875 23.640625 C-80.78218252 -4.80435713 -35.40921858 -11.65544348 0 0 Z " fill="#FE5BFF" transform="translate(545.9375,191.3125)"/>
<path d="M0 0 C0 0.33 0 0.66 0 1 C-0.55461914 1.08040527 -1.10923828 1.16081055 -1.68066406 1.24365234 C-4.20487398 1.61367977 -6.72738939 1.99422859 -9.25 2.375 C-10.12269531 2.50132812 -10.99539063 2.62765625 -11.89453125 2.7578125 C-12.73886719 2.88671875 -13.58320313 3.015625 -14.453125 3.1484375 C-15.22817383 3.26364746 -16.00322266 3.37885742 -16.80175781 3.49755859 C-19.1197921 4.02738029 -20.90222598 4.89848067 -23 6 C-24.6313466 6.46609903 -26.26321042 6.93051565 -27.8984375 7.3828125 C-35.67871388 9.66772638 -42.92122209 12.77914463 -50.10546875 16.5234375 C-53 18 -53 18 -55.48828125 19.0390625 C-68.12042274 24.45579093 -79.68397482 36.97604726 -86.5625 48.65234375 C-88 51 -88 51 -90.3125 53.0625 C-95.39682844 58.61978922 -98.64234367 65.6148177 -100 73 C-100.96180586 75.75316926 -102.0102146 78.46390024 -103.0625 81.18359375 C-104.9182297 86.75851507 -105.34199689 92.62342563 -106 98.4375 C-106.3248624 101.29273593 -106.65755095 104.14681964 -107 107 C-107.1546875 108.2890625 -107.309375 109.578125 -107.46875 110.90625 C-108.04183888 114.24364993 -108.9785513 115.38896209 -111 118 C-111.72045367 121.15118325 -111.72045367 121.15118325 -112 124 C-112.33 124 -112.66 124 -113 124 C-116.56076258 108.19250795 -114.68694446 90.37410211 -110 75 C-109.63777344 73.7728125 -109.27554688 72.545625 -108.90234375 71.28125 C-100.56942256 45.74578982 -81.63933281 24.15846092 -57.99853516 11.63305664 C-49.93102254 7.56382141 -41.6970603 4.4522533 -33 2 C-32.13890625 1.75378906 -31.2778125 1.50757813 -30.390625 1.25390625 C-20.54875836 -1.01849926 -10.03559769 -0.17263831 0 0 Z " fill="#FF81FF" transform="translate(311,406)"/>
<path d="M0 0 C29.63481823 -0.3678805 57.72259834 2.83963754 85.9375 12.125 C86.9994458 12.47393311 88.0613916 12.82286621 89.15551758 13.18237305 C90.14447021 13.51664307 91.13342285 13.85091309 92.15234375 14.1953125 C93.03913818 14.49453613 93.92593262 14.79375977 94.83959961 15.10205078 C97 16 97 16 99 18 C96.6569392 18.78102027 95.24734447 19.05653588 92.8125 18.5 C88.78164323 17.78340324 85.02726052 18.42969078 81 19 C80.195625 17.2984375 80.195625 17.2984375 79.375 15.5625 C77.66409533 12.53786496 77.36093663 12.11549972 73.875 11 C71.0559017 10.78571015 71.0559017 10.78571015 69 12 C67.11984717 11.79855505 65.24004496 11.58881578 63.3671875 11.328125 C60.78970913 10.97085077 58.21148937 10.65988868 55.625 10.375 C54.37589844 10.23191406 54.37589844 10.23191406 53.1015625 10.0859375 C50.94117747 9.82800097 50.94117747 9.82800097 49 11 C48.01 10.67 47.02 10.34 46 10 C44.66216607 10.31478446 43.32796291 10.64587656 42 11 C41.67 10.67 41.34 10.34 41 10 C39.58124059 9.92527929 38.15885546 9.91675538 36.73828125 9.9375 C35.86623047 9.94523437 34.99417969 9.95296875 34.09570312 9.9609375 C32.25976176 9.9867051 30.42382413 10.01274087 28.58789062 10.0390625 C23.90815471 10.0802634 19.61590187 9.85407224 15 9 C6.87474726 8.57235512 -0.87498782 9.06004993 -8.8671875 10.5625 C-12 11 -12 11 -15.890625 10.83203125 C-20.57143663 10.77523339 -23.84262197 12.46588048 -27.875 14.6875 C-28.56609863 15.05037109 -29.25719727 15.41324219 -29.96923828 15.78710938 C-31.34742139 16.51108147 -32.72237397 17.24124239 -34.09375 17.97802734 C-36.66788086 19.35806215 -39.26726113 20.68475961 -41.875 22 C-42.63554687 22.391875 -43.39609375 22.78375 -44.1796875 23.1875 C-46 24 -46 24 -48 24 C-48.495 25.485 -48.495 25.485 -49 27 C-50.96303418 28.07074592 -52.9697411 29.06295743 -55 30 C-60.22919948 32.54755872 -63.3955445 36.56191492 -67 41 C-67.56460938 41.68964844 -68.12921875 42.37929688 -68.7109375 43.08984375 C-71.77750215 46.98662468 -73.56440329 50.21467762 -75 55 C-76.58997522 58.37298257 -78.28551635 61.68882165 -80 65 C-80.66 65 -81.32 65 -82 65 C-83.51033231 69.82299451 -84.96416746 74.5993809 -85.9375 79.5625 C-87.35994746 86.18099522 -89.19787004 92.14000559 -95 96 C-94.729829 89.01607956 -93.60898805 83.11676988 -91.03125 76.6171875 C-90.10344249 74.2625245 -89.34923931 71.92275294 -88.625 69.5 C-86.00971205 61.59728206 -82.13783034 54.65326479 -76 49 C-75.41734375 48.10667969 -74.8346875 47.21335937 -74.234375 46.29296875 C-64.49357375 31.93720747 -51.60237084 21.60266459 -35.81005859 14.78613281 C-33.1455584 13.62890451 -30.51248166 12.40479923 -27.875 11.1875 C-19.45346016 7.34402465 -11.18131269 4.90652295 -2.0625 3.375 C-0.89364258 3.17390625 -0.89364258 3.17390625 0.29882812 2.96875 C2.19863271 2.6424032 4.09923637 2.32071377 6 2 C4.02 1.67 2.04 1.34 0 1 C0 0.67 0 0.34 0 0 Z " fill="#FD61FF" transform="translate(300,405)"/>
<path d="M0 0 C5.63396429 0.82523926 11.40010263 1.16387035 17.0078125 0.015625 C19.76416714 -0.52292429 22.30291235 -0.61327532 25.109375 -0.60546875 C26.50349609 -0.60933594 26.50349609 -0.60933594 27.92578125 -0.61328125 C30.28834976 -0.49356839 32.28718263 -0.15040108 34.546875 0.51953125 C34.546875 1.50953125 34.546875 2.49953125 34.546875 3.51953125 C35.206875 3.51953125 35.866875 3.51953125 36.546875 3.51953125 C36.876875 5.82953125 37.206875 8.13953125 37.546875 10.51953125 C33.091875 9.52953125 33.091875 9.52953125 28.546875 8.51953125 C28.546875 7.85953125 28.546875 7.19953125 28.546875 6.51953125 C27.556875 6.84953125 26.566875 7.17953125 25.546875 7.51953125 C23.43445665 7.26880765 21.3303884 6.94521364 19.234375 6.58203125 C5.94173808 4.57379114 -8.86163015 4.19713951 -21.453125 9.51953125 C-22.92866659 9.92867069 -24.40804484 10.32418126 -25.890625 10.70703125 C-41.68335795 15.39770865 -53.05320571 24.72212191 -64.22631836 36.453125 C-64.84385986 37.09121094 -65.46140137 37.72929687 -66.09765625 38.38671875 C-66.64784424 38.96534668 -67.19803223 39.54397461 -67.76489258 40.14013672 C-69.65152868 41.68163983 -71.07336691 42.11517034 -73.453125 42.51953125 C-73.453125 43.50953125 -73.453125 44.49953125 -73.453125 45.51953125 C-74.113125 45.51953125 -74.773125 45.51953125 -75.453125 45.51953125 C-75.5459375 46.72609375 -75.5459375 46.72609375 -75.640625 47.95703125 C-76.55890233 51.98332415 -78.17936515 54.86242917 -80.296875 58.37109375 C-81.42536969 60.46795888 -81.92485215 62.21393365 -82.453125 64.51953125 C-83.07340676 66.04229504 -83.69901223 67.5628946 -84.328125 69.08203125 C-88.59121989 80.72415584 -89.78587864 93.57826495 -89.98706055 105.91259766 C-90.12556457 110.47475057 -91.16053433 113.58676268 -93.453125 117.51953125 C-94.113125 117.18953125 -94.773125 116.85953125 -95.453125 116.51953125 C-95.4325 115.42640625 -95.411875 114.33328125 -95.390625 113.20703125 C-95.26768048 109.57568934 -95.26768048 109.57568934 -96.453125 106.51953125 C-95.958125 106.02453125 -95.958125 106.02453125 -95.453125 105.51953125 C-95.29061466 102.6214302 -95.17404653 99.73241002 -95.078125 96.83203125 C-94.52263637 83.91024981 -92.35470913 71.15612253 -86.453125 59.51953125 C-86.14375 58.71515625 -85.834375 57.91078125 -85.515625 57.08203125 C-84.38514358 54.35557607 -82.99750284 52.03629514 -81.453125 49.51953125 C-81.16179687 48.9059375 -80.87046875 48.29234375 -80.5703125 47.66015625 C-76.96224984 40.33712538 -71.58406632 34.87603512 -65.94921875 29.08447266 C-64.61112778 27.68480504 -63.32507043 26.2358198 -62.046875 24.78125 C-53.46309068 15.33026829 -42.05151735 10.38598958 -30.453125 5.51953125 C-28.95458984 4.86791016 -28.95458984 4.86791016 -27.42578125 4.203125 C-24.45153302 2.92958784 -21.46155715 1.7099472 -18.453125 0.51953125 C-17.77378906 0.24367187 -17.09445312 -0.0321875 -16.39453125 -0.31640625 C-10.82907568 -2.15958938 -5.67657179 -0.94406505 0 0 Z " fill="#F541FF" transform="translate(507.453125,193.48046875)"/>
<path d="M0 0 C-3.14179559 1.0472652 -5.1535332 1.03780709 -8.4375 0.9375 C-21.54368596 0.8426422 -33.30600897 4.56925087 -45.45703125 9.09375 C-47.58818719 9.85324029 -49.68795501 10.49320412 -51.875 11.0625 C-56.13617401 12.3408522 -59.02562532 13.99696724 -62.125 17.1875 C-64 19 -64 19 -67 19 C-67 19.66 -67 20.32 -67 21 C-68.01964844 21.37769531 -69.03929687 21.75539062 -70.08984375 22.14453125 C-74.29700373 23.95334544 -77.28366398 26.54091873 -80.5625 29.6875 C-81.12751221 30.21988281 -81.69252441 30.75226563 -82.2746582 31.30078125 C-87.50113509 36.31311409 -91.85171536 41.4446676 -95 48 C-95.66 48 -96.32 48 -97 48 C-97.33 49.98 -97.66 51.96 -98 54 C-99.485 54.495 -99.485 54.495 -101 55 C-101.8205792 56.82330807 -101.8205792 56.82330807 -102.3125 59.125 C-103.55453149 63.76103197 -105.2505817 68.09175891 -107.125 72.5 C-109.3008265 77.68886044 -110.68139468 82.38833936 -110.796875 88.046875 C-111 90 -111 90 -113 93 C-113.09599179 96.15176853 -113.09599179 96.15176853 -112.75 99.8125 C-112.6984375 100.49594482 -112.646875 101.17938965 -112.59375 101.88354492 C-112.40918262 104.25696612 -112.20521035 106.62827685 -112 109 C-111.92201172 109.94230469 -111.84402344 110.88460937 -111.76367188 111.85546875 C-111.51579013 114.84176063 -111.25995073 117.82723557 -111 120.8125 C-110.91717773 121.77325439 -110.83435547 122.73400879 -110.74902344 123.72387695 C-110.6668457 124.62581787 -110.58466797 125.52775879 -110.5 126.45703125 C-110.4278125 127.26116455 -110.355625 128.06529785 -110.28125 128.89379883 C-110.04223235 131.18643358 -110.04223235 131.18643358 -109 134 C-109.20625 134.99 -109.4125 135.98 -109.625 137 C-109.74875 137.99 -109.8725 138.98 -110 140 C-109.02246356 141.02196992 -108.0194119 142.01979625 -107 143 C-106.60539977 145.32375692 -106.27769908 147.6593935 -106 150 C-105.649375 151.03125 -105.29875 152.0625 -104.9375 153.125 C-104.00205484 155.99369849 -104 158.02188787 -104 161 C-103.649375 161.845625 -103.29875 162.69125 -102.9375 163.5625 C-101.89867208 166.2634526 -102.01417461 167.33827144 -103 170 C-102.01 170.33 -101.02 170.66 -100 171 C-99.855625 172.11375 -99.71125 173.2275 -99.5625 174.375 C-99.21627965 177.82142047 -99.21627965 177.82142047 -98 180 C-98.66 180.99 -99.32 181.98 -100 183 C-107.3730027 161.95272917 -113.07285432 141.12851659 -116 119 C-116.10078857 118.27619141 -116.20157715 117.55238281 -116.30541992 116.80664062 C-119.62505389 90.79666739 -112.45021635 63.18138068 -97 42 C-93.27425091 37.40242563 -89.16020154 33.20127546 -85 29 C-84.38511719 28.32453125 -83.77023437 27.6490625 -83.13671875 26.953125 C-68.45856726 11.07304051 -21.32930271 -14.21953514 0 0 Z " fill="#FE71FF" transform="translate(522,188)"/>
<path d="M0 0 C1.19367188 -0.00257813 2.38734375 -0.00515625 3.6171875 -0.0078125 C7.125 0.125 7.125 0.125 9.93359375 0.6328125 C14.40386841 1.32223062 18.79822906 1.19037684 23.3125 1.125 C25.09759541 1.09948041 26.8827622 1.07845121 28.66796875 1.0625 C29.8439563 1.04509766 29.8439563 1.04509766 31.04370117 1.02734375 C33.125 1.125 33.125 1.125 36.125 2.125 C37.115 1.795 38.105 1.465 39.125 1.125 C40.115 1.455 41.105 1.785 42.125 2.125 C43.115 2.125 44.105 2.125 45.125 2.125 C47.0499647 3.94693842 48.50035531 6.01735283 50.125 8.125 C47.16705573 9.02857474 45.06314682 9.14483736 42.02734375 8.6015625 C41.23545654 8.46790283 40.44356934 8.33424316 39.62768555 8.1965332 C38.78117432 8.04917725 37.93466309 7.90182129 37.0625 7.75 C27.07950081 6.13549142 17.22635148 5.39672432 7.125 5.125 C5.82949219 5.08375 4.53398437 5.0425 3.19921875 5 C-21.87521452 4.57635593 -45.49253794 10.47684955 -64.875 27.125 C-65.720625 27.83785156 -66.56625 28.55070312 -67.4375 29.28515625 C-72.64437335 33.80242881 -77.0334709 38.39393829 -80.875 44.125 C-81.37 42.64 -81.37 42.64 -81.875 41.125 C-81.2253125 40.5371875 -81.2253125 40.5371875 -80.5625 39.9375 C-78.77780589 38.15233173 -78.77780589 38.15233173 -77.51171875 35.80078125 C-75.86665323 33.11135433 -74.0849272 30.86075415 -72 28.5 C-71.01386719 27.36691406 -71.01386719 27.36691406 -70.0078125 26.2109375 C-66.93500101 23.20566033 -63.60151989 21.47372955 -59.75 19.625 C-56.97000435 18.3826566 -56.97000435 18.3826566 -55.640625 16.77734375 C-53.02097589 14.32576947 -49.90895483 12.83015651 -46.75 11.1875 C-46.07928467 10.83486084 -45.40856934 10.48222168 -44.7175293 10.11889648 C-34.18686844 4.62833503 -26.35311218 2.06473847 -14.40625 1.40625 C-11.09710887 1.2439437 -11.09710887 1.2439437 -8.8359375 0.6015625 C-5.8878525 -0.11490437 -3.02701482 -0.00650971 0 0 Z " fill="#F04CFF" transform="translate(307.875,412.875)"/>
<path d="M0 0 C29.63481823 -0.3678805 57.72259834 2.83963754 85.9375 12.125 C86.9994458 12.47393311 88.0613916 12.82286621 89.15551758 13.18237305 C90.14447021 13.51664307 91.13342285 13.85091309 92.15234375 14.1953125 C93.03913818 14.49453613 93.92593262 14.79375977 94.83959961 15.10205078 C97 16 97 16 99 18 C96.6569392 18.78102027 95.24734447 19.05653588 92.8125 18.5 C88.78164323 17.78340324 85.02726052 18.42969078 81 19 C80.46375 17.865625 79.9275 16.73125 79.375 15.5625 C77.66409533 12.53786496 77.36093663 12.11549972 73.875 11 C71.0559017 10.78571015 71.0559017 10.78571015 69 12 C67.10003513 11.8000037 65.20026891 11.59148295 63.30859375 11.32421875 C60.87608198 10.98259696 58.44185271 10.70367352 56 10.4375 C55.236875 10.35371094 54.47375 10.26992188 53.6875 10.18359375 C52.8521875 10.09271484 52.8521875 10.09271484 52 10 C51.505 8.515 51.505 8.515 51 7 C39.98747827 5.95086235 39.98747827 5.95086235 29 6.5625 C25.94141997 7.02945878 23.74677836 6.83864404 20.75 6.0625 C11.63945953 3.72524093 -0.40794358 3.70397179 -9 8 C-10.99960012 8.039992 -13.00047242 8.04346799 -15 8 C-11.2684065 4.41887398 -7.16186266 4.05783239 -2.25 3.3125 C-1.45722656 3.18294922 -0.66445313 3.05339844 0.15234375 2.91992188 C2.09994074 2.60314405 4.04977861 2.30019783 6 2 C3.03 1.505 3.03 1.505 0 1 C0 0.67 0 0.34 0 0 Z " fill="#FE72FF" transform="translate(300,405)"/>
<path d="M0 0 C6.40940444 0.71404506 13.1021343 1.41319401 19.47265625 0.125 C22.22559282 -0.41963042 24.75826648 -0.50780037 27.5625 -0.5 C28.95662109 -0.50386719 28.95662109 -0.50386719 30.37890625 -0.5078125 C32.74147476 -0.38809964 34.74030763 -0.04493233 37 0.625 C37 1.615 37 2.605 37 3.625 C37.66 3.625 38.32 3.625 39 3.625 C39.495 7.09 39.495 7.09 40 10.625 C35.545 9.635 35.545 9.635 31 8.625 C31 7.965 31 7.305 31 6.625 C30.01 6.955 29.02 7.285 28 7.625 C25.88758165 7.3742764 23.7835134 7.05068239 21.6875 6.6875 C8.39486308 4.67925989 -6.40850515 4.30260826 -19 9.625 C-20.47554159 10.03413944 -21.95491984 10.42965001 -23.4375 10.8125 C-39.74935956 15.65736575 -51.41759341 25.65290496 -63 37.625 C-63 33.92665104 -62.18635778 33.35418572 -59.75 30.6875 C-59.14671875 30.01847656 -58.5434375 29.34945312 -57.921875 28.66015625 C-57.28765625 27.98855469 -56.6534375 27.31695312 -56 26.625 C-55.39929688 25.96886719 -54.79859375 25.31273437 -54.1796875 24.63671875 C-51.47736745 22.142642 -48.50997564 20.26438264 -45.375 18.375 C-44.78976562 18.01148438 -44.20453125 17.64796875 -43.6015625 17.2734375 C-39.26051457 14.625 -39.26051457 14.625 -37 14.625 C-37 13.965 -37 13.305 -37 12.625 C-32.62950459 10.57507067 -28.2549968 8.53416767 -23.87646484 6.50146484 C-22.30489628 5.76741187 -20.73955126 5.02005434 -19.17578125 4.26953125 C-15.20028015 2.3998983 -12.46760683 1.3621996 -8 1.625 C-4.5541535 -0.672231 -3.92841793 -0.51389188 0 0 Z " fill="#EB37FF" transform="translate(505,193.375)"/>
<path d="M0 0 C0.99 0 1.98 0 3 0 C3 0.99 3 1.98 3 3 C3.66 3 4.32 3 5 3 C7 6 7 6 6.75 9.5 C6 13 6 13 4 16 C1.36034793 17.61785127 0.15987325 18 -3 18 C-3 17.34 -3 16.68 -3 16 C-3.99 16 -4.98 16 -6 16 C-6 15.34 -6 14.68 -6 14 C-6.66 14 -7.32 14 -8 14 C-8 13.01 -8 12.02 -8 11 C-6.88625 10.896875 -5.7725 10.79375 -4.625 10.6875 C-3.42875 10.460625 -2.2325 10.23375 -1 10 C1.56687367 6.1496895 0.83288724 4.41430237 0 0 Z " fill="#FF78FF" transform="translate(462,440)"/>
<path d="M0 0 C1.43859375 -0.00580078 1.43859375 -0.00580078 2.90625 -0.01171875 C8.04605362 -0.00465858 12.93551096 0.23871442 18 1.125 C18.495 2.61 18.495 2.61 19 4.125 C19.99 3.795 20.98 3.465 22 3.125 C24.6875 4.0625 24.6875 4.0625 27 5.125 C27 5.785 27 6.445 27 7.125 C23.7 6.795 20.4 6.465 17 6.125 C17 5.135 17 4.145 17 3.125 C13.93744039 3.0979509 10.8751214 3.07813702 7.8125 3.0625 C6.94818359 3.05412109 6.08386719 3.04574219 5.19335938 3.03710938 C0.96791668 3.02091994 -2.8666446 3.16030305 -7 4.125 C-8.53901198 4.23492943 -10.0821239 4.29924505 -11.625 4.3125 C-12.38039063 4.32667969 -13.13578125 4.34085938 -13.9140625 4.35546875 C-16 4.125 -16 4.125 -19 2.125 C-15.31207188 -1.56292812 -4.80337995 -0.01936847 0 0 Z " fill="#FD4DFF" transform="translate(525,190.875)"/>
<path d="M0 0 C0.66 0.33 1.32 0.66 2 1 C1.57847656 1.74765625 1.15695312 2.4953125 0.72265625 3.265625 C-0.09912109 4.74289063 -0.09912109 4.74289063 -0.9375 6.25 C-1.48277344 7.22453125 -2.02804687 8.1990625 -2.58984375 9.203125 C-3.7896632 11.58282231 -4.44066582 13.43424687 -5 16 C-5.61051046 17.67202864 -6.2370113 19.33826199 -6.875 21 C-8.78169565 26.11434971 -10.07380683 31.22830716 -11.19140625 36.56640625 C-12 39 -12 39 -15 41 C-15.625 39.25 -15.625 39.25 -16 37 C-15.34358283 35.66159097 -14.67530422 34.32897947 -14 33 C-13.57409771 31.40355333 -13.18113957 29.79813329 -12.8125 28.1875 C-11.52102363 23.27857196 -9.71473799 18.82727883 -7.5625 14.25 C-7.27415283 13.63664795 -6.98580566 13.0232959 -6.6887207 12.39135742 C-4.64590482 8.14506759 -2.37408244 4.06985561 0 0 Z " fill="#E938FF" transform="translate(430,242)"/>
<path d="M0 0 C0.99 0 1.98 0 3 0 C3.33 0.99 3.66 1.98 4 3 C1.49770098 7.70432216 -1.20102715 10.64756233 -6 13 C-10.3525844 13.07504456 -12.22195543 12.71819499 -15.4375 9.75 C-17.10291199 6.8188749 -17.37775893 5.3053906 -17 2 C-16.01 2.495 -16.01 2.495 -15 3 C-15 3.99 -15 4.98 -15 6 C-14.34 6 -13.68 6 -13 6 C-13 6.66 -13 7.32 -13 8 C-12.01 8 -11.02 8 -10 8 C-10 8.66 -10 9.32 -10 10 C-5.22187526 8.62046126 -5.22187526 8.62046126 -1.8671875 5.2421875 C-1.15326039 3.5301487 -0.56654702 1.76629365 0 0 Z " fill="#FD60FF" transform="translate(469,448)"/>
<path d="M0 0 C-1.68673918 4.49797113 -3.81673892 8.72886302 -6 13 C-6.66 13 -7.32 13 -8 13 C-9.75762896 18.61269516 -11.31106682 24.19490015 -12.52734375 29.94921875 C-13.16167106 32.70146533 -14.04644169 35.343659 -15 38 C-15.33 38 -15.66 38 -16 38 C-16.40759716 25.25036076 -11.78986006 10.94096655 -3.41015625 1.140625 C-2 0 -2 0 0 0 Z " fill="#EF53FF" transform="translate(226,457)"/>
<path d="M0 0 C-1.1875 1.5 -1.1875 1.5 -3 3 C-3.73089844 2.97164062 -4.46179688 2.94328125 -5.21484375 2.9140625 C-8.82995806 3.0256088 -11.14557717 4.27179484 -14.375 5.875 C-18.90111414 8.05328876 -23.11413993 9.86375347 -28 11 C-22.57232918 4.21541148 -8.63688545 -2.87896182 0 0 Z " fill="#FC46FF" transform="translate(500,193)"/>
<path d="M0 0 C0.33 0.99 0.66 1.98 1 3 C-1.35729128 7.26125732 -3.89654004 10.36206146 -8 13 C-11.3125 13.75 -11.3125 13.75 -14 14 C-14 13.01 -14 12.02 -14 11 C-13.2575 10.87625 -12.515 10.7525 -11.75 10.625 C-9.12206365 10.02774174 -7.24734013 9.47239526 -5 8 C-3.89163577 6.11683841 -3.89163577 6.11683841 -3 4 C-2.02418241 2.64886795 -1.02970259 1.31053056 0 0 Z " fill="#EF4CFF" transform="translate(474,449)"/>
<path d="M0 0 C1.5 1.375 1.5 1.375 3 3 C3 3.66 3 4.32 3 5 C3.66 5 4.32 5 5 5 C7.15305957 8.85756507 8.39253254 11.55129785 8 16 C5.70351643 13.10414095 3.95652443 10.1827969 2.3125 6.875 C1.65701172 5.57175781 1.65701172 5.57175781 0.98828125 4.2421875 C0 2 0 2 0 0 Z " fill="#FC64FF" transform="translate(429,385)"/>
</svg>
